<svg xmlns="http://www.w3.org/2000/svg" xmlns:xlink="http://www.w3.org/1999/xlink" width="800" height="800" viewBox="0 0 800 800"><style>:root { fill: #425ea8; } @media (prefers-color-scheme: dark) { :root { fill: #fff; } }</style><defs><clipPath id="b"><rect width="800" height="800"/></clipPath></defs><g id="a" clip-path="url(#b)"><g transform="translate(21.065 9.575)"><path d="M598.406,555.65c-2.157,1.088-33.029,65.261-97.726,100.466a154.533,154.533,0,0,1-28.638,16.922c-4.1-.7-8.9-1.03-11.444-2.74-4.935-4.741-.894-7.674.447-12.629-13.6.816-27.2,25.413-34.525,13.231-2.118-4.6-.661-7.558-.719-13.017-13.347-.6-13.134,29.279-28.716,28.929-15.737.544-15.329-29.532-28.716-28.929,0,5.459,1.379,8.413-.738,13.017-7.363,12.182-20.964-12.415-34.564-13.231,1.321,4.954,5.382,7.888.427,12.629-3.517,2.39-11.424,2.06-15.718,3.886H317.6a227.947,227.947,0,0,1-25.84-13.736c-11.657-7.227-28.191-15.018-38.857-22.168-22.4-15.018-41.83-29.143-58.714-50.748l-2.642-3.886a8.96,8.96,0,0,1-1.515-1.3l-1.3-1.3c-9-9.909-23.081-35.788-28.6-46.862-8.957-17.933-15.543-38.857-20.633-59.86-8.374-34.68-10.492-74.023-8.121-110.433.389-6.042,1.049-12.318,1.826-18.321l2.934-15.97c0-.369.214-.447.35-.661-1.01-7.441,8-36.74,10.705-44.783,2.467-7.325,4.857-13.5,7.771-20.342,1.613-3.886,6.411-15.99,9.578-18.9.214-2.273,4.138-9.714,5.829-10.725,3.3-9.112,16.864-25.957,22.634-33.262,4.643-5.829,22.44-25.257,27.88-27.628,3.575-6.373,30.969-23.858,40.8-29.143,51.719-27.822,114.338-38.236,174.353-29.143,54.012,8.238,102.078,33.184,135.224,75.15,16.009,20.284,22.654,36.215,27.025,42.1l150.728-.155-2.934-8.121c-3.886-4.313-37.866-103.769-139.071-164.542C553.079,27.189,499.728,10.248,434.506,3.758c-11.949-1.185-24.053-1.651-36.215-1.846-9.17-.136-56.343,2.215-76.238,5.926-68.234,12.726-132.659,40.878-185.078,84.67l-12.162,10.744c-2.856,2.837-8.549,8.607-11.657,10.064-1.574,2.875-15.174,17-19.681,22.168A392.011,392.011,0,0,0,58.5,183.59C26.581,235,15.759,275.818,4.859,335.134L1.751,367.91c-.466,13.017-1.185,30.969.369,43.676-1.593,8.218,3.711,44.861,5.4,54.847a395.935,395.935,0,0,0,28.288,93.86l20.711,40.8,21.644,31.3,40.995,45.521c1.282,1.379,1.69,2.331,3.07,3.691,2.37,2.351,4.119,3.439,7.189,6.373,5.362,5.11,27.705,21.255,29.337,24.247,3.4.544,16.4,10.258,20.789,13.017,7.286,4.546,14.513,8.141,22.168,12.629,36.351,21.371,86.555,35.457,128.948,42.374,10.394,1.69,20.3,1.943,30.833,3.245a438,438,0,0,0,150.028-14.552c6.547-1.768,13.231-4.449,19.429-5.829,5.032-2.914,21-7.655,27.744-10.589,34.505-15,57.159-29.046,86.263-52.03,3.886-3.089,6.9-6.081,10.569-8.937,11.657-9.073,38.857-39.421,47.406-51.8,2.04-2.914,6.45-9.714,8.393-11.21l10.861-17.836c12.648-20.264,16.981-33.4,26.792-54.867C742.781,554.484,598.814,555.436,598.406,555.65Z" transform="translate(-1.16 -1.91)"/><rect width="164.114" height="8.976" transform="translate(315.258 278.688)"/><path d="M172,133.173H302.988v-8.937h-62.58V108.207H251l8.879-24.577H240.447V72.75h-8.9V83.63H212.12s8.043,19.176,8.937,24.577h10.53v16.009H172Z" transform="translate(159.908 64.886)"/><path d="M163.079,156c3.691,22.557,23.878,24.772,42.9,19.429,14.649-4.1,25.9-10.705,40.237-10.433h0c14.358-.272,25.607,6.334,40.256,10.433,19.021,5.343,39.188,3.128,42.9-19.429,2.895-17.7-9.442-40.528-17.661-49.854H180.818C172.521,115.573,160.184,138.3,163.079,156Z" transform="translate(151.091 96.377)"/><path d="M152.313,214.694c4.624,28.269,29.9,31.086,53.74,24.364,18.341-5.149,32.446-13.445,50.417-13.076h0c17.991-.369,32.077,7.927,50.515,13.076,23.82,6.683,49.116,3.886,53.74-24.364,3.633-22.149-11.832-50.767-22.11-62.444H174.423C164.145,163.927,148.68,192.565,152.313,214.694Z" transform="translate(140.835 139.844)"/><rect width="231.085" height="8.976" transform="translate(281.782 386.614)"/><path d="M423.244,295.392c5.09-31.086-16.612-71.264-31.086-87.662H161.831c-14.436,16.4-36.157,56.557-31.086,87.662,6.509,39.693,41.985,43.579,75.442,34.195,19.759-5.537,36.021-13.6,53.9-16.922l3.886-53.7.369-5.323h22.5l.389,5.323,3.886,53.2c19.04,2.875,35.962,11.657,56.771,17.486C381.239,338.971,416.735,335.085,423.244,295.392Z" transform="translate(120.301 192.154)"/><path d="M324.017,409.8c-.272.563-.622,1.3-.777,1.749l.155.175a33.884,33.884,0,0,0,5.926,1.2c1.146.175,2.293.33,3.439.544l29.4-76.821c-3.439-2.914-29.143-14.921-45.366-32.329-9.345-10.025-22.887-26.345-43.734-33.029l1.185,16.65a17.486,17.486,0,0,1-17.486,18.826,18.418,18.418,0,0,1-18.36-19.7l1.127-15.776c-20.828,6.664-34.331,22.965-43.676,33.029-16.262,17.486-41.927,29.415-45.366,32.329l29.4,76.821c1.146-.214,2.312-.369,3.439-.544a34.137,34.137,0,0,0,5.945-1.2l.136-.175c-.155-.447-.505-1.185-.758-1.749a24.965,24.965,0,0,1-1.807-4.624,5.829,5.829,0,0,1,5.557-7.228h.33c7.771.447,14.358,5.829,20.264,10.647a70.232,70.232,0,0,0,6.042,4.585,10.083,10.083,0,0,0,2.565,1.3,1.416,1.416,0,0,0,.214-.291,9.558,9.558,0,0,0,.33-5.149,44.954,44.954,0,0,1-.253-5.226,5.829,5.829,0,0,1,5.479-5.673h.661a14.882,14.882,0,0,1,11.929,6.392,56.923,56.923,0,0,1,5.926,10.453c3.5,7.305,6.081,12.1,10.045,12.1h.7c3.886,0,6.586-4.779,10.122-12.1a57.139,57.139,0,0,1,5.984-10.453,14.863,14.863,0,0,1,11.929-6.372h.661a5.829,5.829,0,0,1,5.479,5.673,44.978,44.978,0,0,1-.253,5.226,9.714,9.714,0,0,0,.33,5.168l.214.272a10.059,10.059,0,0,0,2.584-1.3,73.4,73.4,0,0,0,6.023-4.585c5.829-4.779,12.609-10.2,20.264-10.647h.35a5.693,5.693,0,0,1,4.449,2.118,5.829,5.829,0,0,1,1.107,5.11A28.048,28.048,0,0,1,324.017,409.8Z" transform="translate(139.618 252.083)"/><path d="M223.1,323.245l-6.275-88.925H204.972l-6.295,88.051a12.648,12.648,0,0,0,12.629,13.6A11.813,11.813,0,0,0,223.1,323.245Z" transform="translate(185.028 217.225)"/><path d="M195.006,308.22l2.642-2.856a140.2,140.2,0,0,1,23.314-21.547,72.7,72.7,0,0,1,21.2-10.239l.68-9.578a80.066,80.066,0,0,0-27.025,12.376,147.659,147.659,0,0,0-24.888,22.848h0L188.362,302C177.6,313.524,161.3,322.908,152.516,327.94c-1.943,1.088-3.361,1.943-4.566,2.662l3.3,8.626c1.2-.8,3.011-1.846,5.829-3.439C166.232,330.563,183.33,320.751,195.006,308.22Z" transform="translate(137.232 245.209)"/><path d="M308.317,330.89c-1.243-.758-2.778-1.651-4.818-2.817-8.762-5.032-25.082-14.416-35.846-25.937l-2.565-2.778A146.778,146.778,0,0,0,240.2,276.49,82.047,82.047,0,0,0,213,263.9l.68,9.6a74.721,74.721,0,0,1,21.372,10.453,140.354,140.354,0,0,1,23.314,21.527l2.6,2.837c11.657,12.532,28.774,22.343,37.964,27.608,2.953,1.71,4.8,2.778,6,3.594Z" transform="translate(198.566 245.115)"/></g></g></svg>