<svg id="Schiff_und_C" data-name="Schiff und C" xmlns="http://www.w3.org/2000/svg" viewBox="0 0 384.91 402.95"><defs><style>.cls-1{fill:#fff;}</style></defs><path class="cls-1" d="M308.57,286.92c-1.11.56-17,33.59-50.3,51.71a79.54,79.54,0,0,1-14.74,8.71c-2.11-.36-4.58-.53-5.89-1.41-2.54-2.44-.46-3.95.23-6.5-7,.42-14,13.08-17.77,6.81-1.09-2.37-.34-3.89-.37-6.7-6.87-.31-6.76,15.07-14.78,14.89-8.1.28-7.89-15.2-14.78-14.89,0,2.81.71,4.33-.38,6.7C186,352.51,179,339.85,172,339.43c.68,2.55,2.77,4.06.22,6.5-1.81,1.23-5.88,1.06-8.09,2l-.09,0a117.33,117.33,0,0,1-13.3-7.07c-6-3.72-14.51-7.73-20-11.41-11.53-7.73-21.53-15-30.22-26.12l-1.36-2a4.61,4.61,0,0,1-.78-.67l-.67-.67c-4.63-5.1-11.88-18.42-14.72-24.12-4.61-9.23-8-20-10.62-30.81-4.31-17.85-5.4-38.1-4.18-56.84.2-3.11.54-6.34.94-9.43l1.51-8.22c0-.19.11-.23.18-.34-.52-3.83,4.12-18.91,5.51-23.05,1.27-3.77,2.5-6.95,4-10.47.83-2,3.3-8.23,4.93-9.73.11-1.17,2.13-5,3-5.52,1.7-4.69,8.68-13.36,11.65-17.12,2.39-3,11.55-13,14.35-14.22,1.84-3.28,15.94-12.28,21-15,26.62-14.32,58.85-19.68,89.74-15,27.8,4.24,52.54,17.08,69.6,38.68,8.24,10.44,11.66,18.64,13.91,21.67l77.58-.08-1.51-4.18c-2-2.22-19.49-53.41-71.58-84.69C285.24,14.92,257.78,6.2,224.21,2.86c-6.15-.61-12.38-.85-18.64-.95-4.72-.07-29,1.14-39.24,3.05C131.21,11.51,98.05,26,71.07,48.54l-6.26,5.53c-1.47,1.46-4.4,4.43-6,5.18C58,60.73,51,68,48.68,70.66a201.77,201.77,0,0,0-18,24.76c-16.43,26.46-22,47.47-27.61,78l-1.6,16.87c-.24,6.7-.61,15.94.19,22.48C.84,217,3.57,235.86,4.44,241A203.79,203.79,0,0,0,19,289.31l10.66,21L40.8,326.42l21.1,23.43c.66.71.87,1.2,1.58,1.9,1.22,1.21,2.12,1.77,3.7,3.28,2.76,2.63,14.26,10.94,15.1,12.48,1.75.28,8.44,5.28,10.7,6.7,3.75,2.34,7.47,4.19,11.41,6.5,18.71,11,44.55,18.25,66.37,21.81,5.35.87,10.45,1,15.87,1.67a225.44,225.44,0,0,0,77.22-7.49c3.37-.91,6.81-2.29,10-3,2.59-1.5,10.81-3.94,14.28-5.45,17.76-7.72,29.42-14.95,44.4-26.78,2-1.59,3.55-3.13,5.44-4.6,6-4.67,20-20.29,24.4-26.66,1.05-1.5,3.32-5,4.32-5.77l5.59-9.18c6.51-10.43,8.74-17.19,13.79-28.24C382.88,286.32,308.78,286.81,308.57,286.92Z" transform="translate(-1.16 -1.91)"/><rect class="cls-1" x="162.27" y="143.44" width="84.47" height="4.62"/><path class="cls-1" d="M172,103.85l67.42,0v-4.6H207.21V91h5.45l4.57-12.65h-10v-5.6h-4.58v5.6h-10s4.14,9.87,4.6,12.65h5.42v8.24H172Z" transform="translate(-1.16 -1.91)"/><path class="cls-1" d="M162.87,131.81c1.9,11.61,12.29,12.75,22.08,10,7.54-2.11,13.33-5.51,20.71-5.37h0c7.39-.14,13.18,3.26,20.72,5.37,9.79,2.75,20.17,1.61,22.08-10,1.49-9.11-4.86-20.86-9.09-25.66H172C167.73,111,161.38,122.7,162.87,131.81Z" transform="translate(-1.16 -1.91)"/><path class="cls-1" d="M152.05,184.39c2.38,14.55,15.39,16,27.66,12.54,9.44-2.65,16.7-6.92,25.95-6.73h0c9.26-.19,16.51,4.08,26,6.73,12.26,3.44,25.28,2,27.66-12.54,1.87-11.4-6.09-26.13-11.38-32.14H163.43C158.14,158.26,150.18,173,152.05,184.39Z" transform="translate(-1.16 -1.91)"/><rect class="cls-1" x="145.04" y="198.99" width="118.94" height="4.62"/><path class="cls-1" d="M280.93,252.85c2.62-16-8.55-36.68-16-45.12H146.38c-7.43,8.44-18.61,29.11-16,45.12,3.35,20.43,21.61,22.43,38.83,17.6,10.17-2.85,18.54-7,27.74-8.71l2-27.64.19-2.74h11.58l.2,2.74,2,27.38c9.8,1.48,18.51,6,29.22,9C259.31,275.28,277.58,273.28,280.93,252.85Z" transform="translate(-1.16 -1.91)"/><path class="cls-1" d="M239.8,342.58c-.14.29-.32.67-.4.9l.08.09a17.44,17.44,0,0,0,3.05.62c.59.09,1.18.17,1.77.28l15.13-39.54c-1.77-1.5-15-7.68-23.35-16.64-4.81-5.16-11.78-13.56-22.51-17l.61,8.57a9,9,0,0,1-9,9.69,9.48,9.48,0,0,1-9.45-10.14l.58-8.12c-10.72,3.43-17.67,11.82-22.48,17-8.37,9-21.58,15.14-23.35,16.64l15.13,39.54c.59-.11,1.19-.19,1.77-.28a17.57,17.57,0,0,0,3.06-.62l.07-.09c-.08-.23-.26-.61-.39-.9a12.85,12.85,0,0,1-.93-2.38,3,3,0,0,1,2.86-3.72h.17c4,.23,7.39,3,10.43,5.48a36.14,36.14,0,0,0,3.11,2.36,5.19,5.19,0,0,0,1.32.67.73.73,0,0,0,.11-.15,4.92,4.92,0,0,0,.17-2.65,23.14,23.14,0,0,1-.13-2.69,3,3,0,0,1,2.82-2.92h.34a7.66,7.66,0,0,1,6.14,3.29,29.3,29.3,0,0,1,3.05,5.38c1.8,3.76,3.13,6.23,5.17,6.23h.36c2,0,3.39-2.46,5.21-6.23a29.41,29.41,0,0,1,3.08-5.38,7.65,7.65,0,0,1,6.14-3.28h.34a3,3,0,0,1,2.82,2.92,23.14,23.14,0,0,1-.13,2.69,5,5,0,0,0,.17,2.66l.11.14a5.18,5.18,0,0,0,1.33-.67,37.76,37.76,0,0,0,3.1-2.36c3-2.46,6.49-5.25,10.43-5.48h.18a2.93,2.93,0,0,1,2.29,1.09,3,3,0,0,1,.57,2.63A14.44,14.44,0,0,1,239.8,342.58Z" transform="translate(-1.16 -1.91)"/><path class="cls-1" d="M211.23,280.09,208,234.32H201.9l-3.24,45.32a6.51,6.51,0,0,0,6.5,7A6.08,6.08,0,0,0,211.23,280.09Z" transform="translate(-1.16 -1.91)"/><path class="cls-1" d="M172.17,286.76l1.36-1.47a72.16,72.16,0,0,1,12-11.09,37.42,37.42,0,0,1,10.91-5.27l.35-4.93a41.21,41.21,0,0,0-13.91,6.37,76,76,0,0,0-12.81,11.76v0l-1.32,1.43c-5.54,5.93-13.93,10.76-18.45,13.35-1,.56-1.73,1-2.35,1.37l1.7,4.44c.62-.41,1.55-.95,3-1.77C157.36,298.26,166.16,293.21,172.17,286.76Z" transform="translate(-1.16 -1.91)"/><path class="cls-1" d="M262.06,298.38c-.64-.39-1.43-.85-2.48-1.45-4.51-2.59-12.91-7.42-18.45-13.35l-1.32-1.43A75.55,75.55,0,0,0,227,270.38a42.23,42.23,0,0,0-14-6.48l.35,4.94a38.46,38.46,0,0,1,11,5.38,72.24,72.24,0,0,1,12,11.08l1.34,1.46c6,6.45,14.81,11.5,19.54,14.21,1.52.88,2.47,1.43,3.09,1.85Z" transform="translate(-1.16 -1.91)"/></svg>